:version 1.10
:name ASF
:units
  mass 1
  length 1
  angle deg
:documentation
  ASF file generated by Kaydara
:root
  axis xyz
  order  tx ty tz rx ry rz
  position 0 0 0
  orientation 0 0 0
:bonedata
  begin
    id 1
    name RightUpLegDummy
    direction -1 2.30186e-007 8.31532e-007
    length 4.46685
    axis 0 0 0 xyz
  end
  begin
    id 2
    name RightUpLeg
    direction -2.30187e-007 -1 1.24343e-010
    length 16.4045
    axis -3.49089 -0.000906625 0.000286804 xyz
    dof rx ry rz
  end
  begin
    id 3
    name RightLeg
    direction -2.30181e-007 -1 -4.17157e-009
    length 17.5097
    axis 3.68512 0.0193738 -0.131023 xyz
    dof rx ry rz
  end
  begin
    id 4
    name RightFoot
    direction 8.31421e-007 -4.51202e-011 1
    length 6.49508
    axis 4.81691e-005 -0.120479 -0.188788 xyz
    dof rx ry rz
  end
  begin
    id 5
    name RightToes
    direction 0.00124746 -0.014064 0.9999
    length 3.85082
    axis 0.000481921 0.542163 -0.142578 xyz
    dof rx ry rz
  end
  begin
    id 6
    name SpineDummy
    direction 0.0717043 0.9409 -0.331007
    length 10.0032
    axis 0 0 0 xyz
  end
  begin
    id 7
    name Spine
    direction 2.30186e-007 1 4.58806e-011
    length 9.84055
    axis -0.001389 0.000121418 2.40972e-006 xyz
    dof rx ry rz
  end
  begin
    id 8
    name Spine1
    direction 0 0 0
    length 0
    axis -0.001389 0.000121451 1.30017e-006 xyz
    dof rx ry rz
  end
  begin
    id 9
    name HEadDummy
    direction -0.00347485 0.950688 -0.310128
    length 8.00997
    axis -0.001389 0.000121451 1.30017e-006 xyz
  end
  begin
    id 10
    name HEad
    direction -0.0222688 0.980941 0.193023
    length 5.12695
    axis -0.001389 0.000121451 1.30017e-006 xyz
    dof rx ry rz
  end
  begin
    id 11
    name LeftShoulder1Dummy
    direction 0.988871 0.146793 -0.0242004
    length 3.5792
    axis -0.001389 0.000121451 1.30017e-006 xyz
  end
  begin
    id 12
    name LeftShoulder1
    direction 0.993832 0.108932 0.020779
    length 4.16823
    axis -0.001389 0.000121451 1.30017e-006 xyz
    dof rx ry rz
  end
  begin
    id 13
    name LeftArm
    direction 1 3.44807e-006 -8.31404e-007
    length 9.91437
    axis -23.1894 0.134784 0.967509 xyz
    dof rx ry rz
  end
  begin
    id 14
    name LeftForeArm
    direction 1 3.44842e-006 -8.31581e-007
    length 9.08575
    axis -9.91835 -0.06569 -0.177793 xyz
    dof rx ry rz
  end
  begin
    id 15
    name LeftHand
    direction 0.992938 -0.0411636 0.11126
    length 5.32135
    axis -0.00960232 -0.00340091 0.185173 xyz
    dof rx ry rz
  end
  begin
    id 16
    name RightShoulderDummy
    direction -0.988871 0.146793 -0.0241962
    length 3.5792
    axis -0.001389 0.000121451 1.30017e-006 xyz
  end
  begin
    id 17
    name RightShoulder
    direction -0.993832 0.108933 0.0207785
    length 4.16823
    axis 0.215806 0.000203643 -0.0068026 xyz
    dof rx ry rz
  end
  begin
    id 18
    name RightArm
    direction -1 3.90912e-006 8.31284e-007
    length 9.91437
    axis -23.2009 -0.134239 -0.964101 xyz
    dof rx ry rz
  end
  begin
    id 19
    name RightForeArm
    direction -1 3.90882e-006 8.31502e-007
    length 9.08575
    axis -9.92322 0.0658061 0.178867 xyz
    dof rx ry rz
  end
  begin
    id 20
    name RightHand
    direction -0.992843 -0.0414603 0.112003
    length 5.28593
    axis -0.00960638 0.00330671 -0.185228 xyz
    dof rx ry rz
  end
  begin
    id 21
    name LeftUpLegDummy
    direction 1 -2.30186e-007 -8.31532e-007
    length 4.46685
    axis 0 0 0 xyz
  end
  begin
    id 22
    name LeftUpLeg
    direction -2.30187e-007 -1 6.00931e-010
    length 16.4045
    axis -3.48766 0.00143442 -0.000524262 xyz
    dof rx ry rz
  end
  begin
    id 23
    name LeftLeg
    direction -2.30187e-007 -1 1.6669e-009
    length 17.5097
    axis 3.68178 -0.00654042 -0.000285133 xyz
    dof rx ry rz
  end
  begin
    id 24
    name LeftFoot
    direction 8.31532e-007 -4.54478e-011 1
    length 6.49508
    axis 1.87233e-006 4.66016e-005 -8.6538e-006 xyz
    dof rx ry rz
  end
  begin
    id 25
    name LeftToes
    direction 0.00818058 -0.00485161 0.999955
    length 3.85048
    axis 1.06247e-005 4.65869e-005 -8.65513e-006 xyz
    dof rx ry rz
  end
:hierarchy
  begin
    root RightUpLegDummy SpineDummy LeftUpLegDummy
    RightUpLegDummy RightUpLeg
    RightUpLeg RightLeg
    RightLeg RightFoot
    RightFoot RightToes
    SpineDummy Spine
    Spine Spine1
    Spine1 HEadDummy LeftShoulder1Dummy RightShoulderDummy
    HEadDummy HEad
    LeftShoulder1Dummy LeftShoulder1
    LeftShoulder1 LeftArm
    LeftArm LeftForeArm
    LeftForeArm LeftHand
    RightShoulderDummy RightShoulder
    RightShoulder RightArm
    RightArm RightForeArm
    RightForeArm RightHand
    LeftUpLegDummy LeftUpLeg
    LeftUpLeg LeftLeg
    LeftLeg LeftFoot
    LeftFoot LeftToes
  end

:SAMPLES-PER-SECOND 30
:FULLY-SPECIFIED
:DEGREES
33
root  -6.62149 23.5925 -52.053 61.9434 71.2924 43.2074
RightUpLeg  -10.5659 -4.0786 5.55217
RightLeg  82.3268 -2.02272 -10.424
RightFoot  -26.4071 1.04275 4.82012
RightToes  2.91906 0.00655726 0.0277931
Spine  14.0974 -5.5834 -13.226
Spine1  30.8001 -12.4635 -12.5769
HEad  -0.091716 -19.0881 38.2195
LeftShoulder1  0 -2.42657e-020 -4.95415e-022
LeftArm  -46.4725 -24.8435 -37.7897
LeftForeArm  165.591 -40.5694 -8.22678
LeftHand  5.3166 -41.132 -14.4805
RightShoulder  0 2.42657e-020 1.07489e-018
RightArm  -50.8418 -6.13954 71.7063
RightForeArm  36.6609 40.1021 8.53977
RightHand  -0.59115 19.9296 -2.99466
LeftUpLeg  -75.6024 -4.32046 10.1074
LeftLeg  72.1318 -4.46504 -11.169
LeftFoot  -5.6031 0.0501459 1.0247
LeftToes  -59.4807 1.18758e-006 1.19596e-007
34
root  -4.5829 23.7585 -51.725 55.1371 68.7393 37.2666
RightUpLeg  -19.3205 -10.5348 3.93452
RightLeg  94.431 0.238798 -8.91582
RightFoot  -25.9968 0.787739 3.78921
RightToes  -1.10952 -0.00286242 -0.0104709
Spine  13.9481 -6.11752 -12.9134
Spine1  30.7894 -13.5841 -12.8499
HEad  0.861076 -19.1361 38.4513
LeftShoulder1  0 -2.42657e-020 -4.95415e-022
LeftArm  -48.4354 -26.458 -38.6255
LeftForeArm  169.471 -44.7583 -9.57819
LeftHand  5.81975 -41.0818 -15.823
RightShoulder  0 2.42657e-020 1.07489e-018
RightArm  -50.3454 -6.82054 74.3206
RightForeArm  34.032 44.7772 10.0883
RightHand  -0.994536 18.659 -5.68018
LeftUpLeg  -70.969 -4.85921 9.72619
LeftLeg  75.0381 -2.69653 -7.95859
LeftFoot  -11.0427 0.128819 1.33256
LeftToes  -59.182 1.18758e-006 1.19596e-007
35
root  -2.73663 24.2572 -51.1632 47.1147 65.5885 30.1126
RightUpLeg  -29.2874 -17.5086 4.0372
RightLeg  102.672 1.35362 -7.61002
RightFoot  -25.674 0.600008 3.01027
RightToes  -3.47733 -0.0096459 -0.0326197
Spine  13.8607 -6.34824 -11.8573
Spine1  30.352 -14.2833 -11.907
HEad  1.62722 -18.527 36.8444
LeftShoulder1  0 -2.42657e-020 -4.95415e-022
LeftArm  -48.6229 -28.3423 -41.0141
LeftForeArm  175.329 -48.9029 -11.1247
LeftHand  7.44596 -40.4049 -20.4289
RightShoulder  0 2.42657e-020 1.07489e-018
RightArm  -47.6629 -7.84509 77.4112
RightForeArm  28.7761 51.7803 12.9753
RightHand  -1.24912 18.1653 -7.43446
LeftUpLeg  -64.2982 -4.75501 9.59112
LeftLeg  75.2318 -1.4093 -4.23686
LeftFoot  -15.3607 0.106954 0.793072
LeftToes  -58.4029 1.18758e-006 1.19596e-007
36
root  -0.974168 25.0011 -50.3946 39.1317 61.6106 22.9338
RightUpLeg  -39.5674 -23.5616 6.09099
RightLeg  106.185 1.94366 -8.02291
RightFoot  -25.6714 0.618625 3.09221
RightToes  -4.11006 -0.011613 -0.0384893
Spine  13.7738 -6.26816 -10.416
Spine1  29.4728 -14.2501 -10.6291
HEad  2.62701 -16.9143 34.6317
LeftShoulder1  0 -2.42657e-020 -4.95415e-022
LeftArm  -46.1488 -29.4668 -43.6377
LeftForeArm  -179.285 -52.567 -12.7316
LeftHand  8.61658 -38.4036 -24.7852
RightShoulder  0 2.42657e-020 1.07489e-018
RightArm  -44.814 -7.94028 80.4213
RightForeArm  27.5774 57.3689 16.0485
RightHand  -0.929379 19.5354 -5.02642
LeftUpLeg  -55.9241 -3.73035 9.39561
LeftLeg  73.0513 -0.250536 -0.683864
LeftFoot  -18.7492 -0.0353546 -0.214158
LeftToes  -56.572 1.18758e-006 1.19596e-007
37
root  0.768783 25.871 -49.4172 32.3922 57.0372 16.8731
RightUpLeg  -49.3036 -27.0094 9.16478
RightLeg  105.302 1.59794 -7.00572
RightFoot  -25.26 0.47765 2.50903
RightToes  -8.42602 -0.0126653 -0.0779007
Spine  13.7681 -6.06728 -8.79558
Spine1  28.4263 -13.7907 -9.34375
HEad  4.10728 -14.2424 31.7432
LeftShoulder1  0 -2.42657e-020 -4.95415e-022
LeftArm  -42.7962 -28.4568 -47.7505
LeftForeArm  -175.344 -58.3892 -15.9769
LeftHand  10.2547 -36.9168 -30.4677
RightShoulder  0 2.42657e-020 1.07489e-018
RightArm  -39.7097 -6.56755 82.1113
RightForeArm  30.4798 59.7355 17.6679
RightHand  -0.739927 21.2898 -3.56625
LeftUpLeg  -46.1645 -1.43978 8.96699
LeftLeg  68.3922 1.01238 2.12687
LeftFoot  -21.48 -0.245132 -1.29233
LeftToes  -53.9324 1.18758e-006 1.19596e-007
38
root  2.52239 26.8213 -48.2422 26.9209 52.0509 11.8216
RightUpLeg  -57.558 -27.3763 12.0071
RightLeg  100.942 1.20679 -8.33163
RightFoot  -26.1247 0.656879 3.20829
RightToes  -7.8285 -0.0133854 -0.072514
Spine  14.1271 -5.74577 -7.2719
Spine1  28.0132 -12.9745 -8.11364
HEad  5.1135 -10.4465 28.6521
LeftShoulder1  0 -2.42657e-020 -4.95415e-022
LeftArm  -38.4048 -27.0773 -52.4807
LeftForeArm  -167.645 -63.7119 -20.1158
LeftHand  12.0925 -34.0698 -38.5165
RightShoulder  0 2.42657e-020 1.07489e-018
RightArm  -33.5882 -2.65677 83.2503
RightForeArm  33.9364 58.4124 16.733
RightHand  -1.00459 23.1009 -4.54389
LeftUpLeg  -35.7061 1.96951 8.75274
LeftLeg  61.7787 2.39372 3.82712
LeftFoot  -22.3678 -0.423435 -2.14143
LeftToes  -52.0669 1.18758e-006 1.19596e-007
39
root  4.14136 27.676 -46.9597 23.9116 47.1728 7.43539
RightUpLeg  -65.3232 -24.4772 14.5459
RightLeg  94.0861 0.187647 -9.44618
RightFoot  -26.3218 0.786439 3.74006
RightToes  -6.05138 -0.0135216 -0.0563572
Spine  14.3274 -5.36236 -5.72824
Spine1  27.2502 -11.8746 -7.17575
HEad  5.69698 -6.13413 25.5804
LeftShoulder1  0 -2.42657e-020 -4.95415e-022
LeftArm  -34.1513 -26.3074 -57.9941
LeftForeArm  -154.628 -66.3315 -22.8168
LeftHand  11.6641 -30.3483 -41.652
RightShoulder  0 2.42657e-020 1.07489e-018
RightArm  -28.0567 3.03547 84.6215
RightForeArm  35.4394 54.1313 14.1582
RightHand  -1.18525 24.0185 -5.19888
LeftUpLeg  -27.4956 5.54126 9.27887
LeftLeg  55.215 3.63792 4.55734
LeftFoot  -20.7843 -0.470662 -2.566
LeftToes  -52.4008 1.18758e-006 1.19596e-007
40
root  5.74875 28.293 -45.7108 24.4976 42.0602 5.14271
RightUpLeg  -73.026 -19.6805 14.9912
RightLeg  85.7903 -1.30556 -10.0476
RightFoot  -26.8782 0.895594 4.12435
RightToes  -4.48912 -0.0128225 -0.0419951
Spine  14.3528 -4.64774 -4.33236
Spine1  26.1794 -10.2914 -6.46353
HEad  5.49435 -2.83034 22.1003
LeftShoulder1  0 -2.42657e-020 -4.95415e-022
LeftArm  -27.6177 -27.8945 -64.3194
LeftForeArm  -149.021 -62.8357 -19.2947
LeftHand  11.4291 -24.3479 -50.1512
RightShoulder  0 2.42657e-020 1.07489e-018
RightArm  -24.1208 8.90213 85.5401
RightForeArm  33.7699 50.1546 12.2261
RightHand  -1.02494 24.4758 -4.35391
LeftUpLeg  -22.0428 8.58154 8.27908
LeftLeg  49.5874 5.52514 5.66788
LeftFoot  -17.5701 -0.470615 -3.04455
LeftToes  -53.6655 1.18758e-006 1.19596e-007
41
root  7.34522 28.5411 -44.3665 25.5131 36.9605 2.75986
RightUpLeg  -79.1542 -14.0786 15.1096
RightLeg  76.732 -3.24517 -10.7862
RightFoot  -26.5475 0.959941 4.44522
RightToes  -3.63139 -0.0101189 -0.0340508
Spine  15.0953 -3.83881 -3.0262
Spine1  26.2818 -9.50223 -4.50176
HEad  4.02952 -0.387328 18.8922
LeftShoulder1  0 -2.42657e-020 -4.95415e-022
LeftArm  -20.861 -33.3465 -70.1268
LeftForeArm  -147.942 -51.0724 -12.0104
LeftHand  10.6383 -18.3779 -60.2329
RightShoulder  0 2.42657e-020 1.07489e-018
RightArm  -21.6534 16.7952 86.4053
RightForeArm  29.5557 46.519 10.7346
RightHand  -0.640746 24.1914 -2.61992
LeftUpLeg  -18.1555 11.5015 7.33075
LeftLeg  46.175 7.61233 6.91297
LeftFoot  -13.6836 -0.411443 -3.42819
LeftToes  -57.2125 1.18758e-006 1.19596e-007
42
root  9.03314 28.3504 -42.8247 26.0977 32.2855 0.393633
RightUpLeg  -83.5316 -9.47782 16.1064
RightLeg  69.5116 -4.26479 -9.56157
RightFoot  -24.2023 0.634646 3.33709
RightToes  -4.47917 -0.0127905 -0.0419031
Spine  16.8954 -3.18335 -1.91528
Spine1  27.8343 -9.70446 -1.85358
HEad  2.31598 1.43725 15.9126
LeftShoulder1  0 -2.42657e-020 -4.95415e-022
LeftArm  -18.3114 -41.1264 -75.237
LeftForeArm  -143.202 -38.7729 -7.65129
LeftHand  10.4533 -17.6573 -61.3812
RightShoulder  0 2.42657e-020 1.07489e-018
RightArm  -20.3925 27.1895 88.2935
RightForeArm  25.1162 40.5274 8.67759
RightHand  -0.12696 23.9327 -0.229075
LeftUpLeg  -14.6101 13.0944 6.49445
LeftLeg  45.1176 9.98404 8.69501
LeftFoot  -9.7655 -0.321691 -3.76435
LeftToes  -60.7224 1.18758e-006 1.19596e-007
